<?xml version="1.0" encoding="utf-8"?>
<!-- Generator: Adobe Illustrator 16.0.0, SVG Export Plug-In . SVG Version: 6.00 Build 0)  -->
<!DOCTYPE svg PUBLIC "-//W3C//DTD SVG 1.1//EN" "http://www.w3.org/Graphics/SVG/1.1/DTD/svg11.dtd">
<svg version="1.1" id="Layer_1" xmlns="http://www.w3.org/2000/svg" xmlns:xlink="http://www.w3.org/1999/xlink" x="0px" y="0px"
	 width="756px" height="1008px" viewBox="0 0 756 1008" enable-background="new 0 0 756 1008" xml:space="preserve">
<path id="Black_1_" fill="#5A5A5A" stroke="#000000" stroke-miterlimit="10" d="M506.864,493.211
	c9.839-29.677,19.681-59.363,29.52-89.04c16.697-52.882,32.447-105.721,49.2-159.36c7.025-22.495,12.701-45.489,19.2-68.88
	c3.669-13.207,8.025-27.539,8.64-42.96c-0.24,0-0.48,0-0.72,0c-29.597,12.639-59.203,25.281-88.8,37.92
	c-0.269,17.548-4.016,33.329-7.68,48.24c-5.085,20.691-8.647,40.845-14.16,60.96c-2.56,9.999-5.12,20.001-7.68,30
	c-20.47,2.907-39.227,7.447-58.08,12.48c-17.532,4.68-35.608,6.913-52.56,12c-6.399,1.28-12.8,2.56-19.2,3.84
	c-20.727,6.273-43.583,8.891-64.32,15.12c-6.399,1.28-12.8,2.56-19.2,3.84c-11.279,2.72-22.562,5.44-33.84,8.16
	c-4.56,0.88-9.12,1.76-13.68,2.64c-7.255,2.481-16.724,5.044-24.72,5.76c-1.84-3.52-3.68-7.04-5.52-10.56
	c-3.701-7.097-6.712-14.224-9.84-21.84c-1.588-3.867-3.906-8.135-4.08-13.2c-26.637,13.999-53.283,28.001-79.92,42
	c1.254,12.197,14.138,29.405,19.92,38.64c16.817,26.861,35.305,52.313,52.08,78.96c48.845,77.59,98.617,153.903,137.28,242.16
	c9.947,22.707,18.672,45.966,28.08,70.08c4.792,12.284,11.234,29.085,12.24,43.92c0.771,2.443,5.116,4.67,9.36,5.76
	c6.568,1.687,15.035-1.082,21.84,0.24c48.292-9.331,83.939-27.372,115.92-52.32c7.715-6.019,14.045-13.839,21.6-19.92
	c8.047-6.477,15.382-14.966,21.84-23.04c5.772-7.217,12.33-13.996,17.76-21.6c15.106-21.157,28.12-43.995,38.4-70.08
	c5.085-12.903,8.538-26.925,11.76-41.52C635.208,541.433,581.399,489.945,506.864,493.211z M482.88,367.68c0.16,0,0.32,0,0.48,0
	c-11.039,39.996-22.081,80.004-33.12,120c-2.294,0.608-25.477,0.824-27.12,0.24c-14.879,1.28-29.762,2.561-44.64,3.84
	C413.276,450.404,448.083,409.036,482.88,367.68z M270,478.56c-11.119-20.718-22.241-41.442-33.36-62.16
	c55.354-12.479,110.726-24.961,166.08-37.44c0.57,0.214-6.683,8.524-7.92,10.08c-9.599,11.199-19.201,22.401-28.8,33.6
	c-25.598,29.677-52.643,60.803-78.24,90.48C281.84,501.601,275.919,490.079,270,478.56z M385.92,761.28
	c-1.04-0.08-2.08-0.16-3.12-0.24c-0.074-7.409-2.139-14.23-3.84-20.4c-3.671-13.314-7.359-25.951-11.28-38.4
	c-11.868-37.677-26.136-73.081-41.28-107.76c-6.399-13.999-12.801-28.001-19.2-42c9.477-0.38,22.13-2.004,30.48-4.56
	c4.4-0.56,8.801-1.12,13.2-1.68c9.759-1.84,19.521-3.68,29.28-5.52c18.101-4.104,39.027-2.29,55.44-2.88
	c0.08,0.08,0.16,0.16,0.24,0.24c-5.839,21.438-11.681,42.882-17.52,64.32c-8.729,29.304-14.016,59.136-21.6,89.52
	C391.764,711.775,385.465,737.583,385.92,761.28z M575.76,637.44c-2.214,9.917-4.419,19.542-7.92,28.32
	c-22.807,57.178-68.006,107.14-125.52,129.6c-9.224,3.603-19.124,3.794-30,6.48c2.8-10.479,5.601-20.961,8.4-31.44
	c6.563-21.887,12.755-43.375,19.44-64.56c17.384-55.086,34.85-109.432,54.24-162.96c1.84-0.24,3.68-0.48,5.52-0.72
	C553.499,541.937,588.78,579.126,575.76,637.44z"/>
<path id="White" fill="#FFFFFF" stroke="#000000" stroke-miterlimit="10" d="M494.864,481.211
	c9.839-29.677,19.681-59.363,29.52-89.04c16.697-52.882,32.447-105.721,49.2-159.36c7.025-22.495,12.701-45.489,19.2-68.88
	c3.669-13.207,8.025-27.539,8.64-42.96c-0.24,0-0.48,0-0.72,0c-29.597,12.639-59.203,25.281-88.8,37.92
	c-0.269,17.548-4.016,33.329-7.68,48.24c-5.085,20.691-8.647,40.845-14.16,60.96c-2.56,9.999-5.12,20.001-7.68,30
	c-20.47,2.907-39.227,7.447-58.08,12.48c-17.532,4.68-35.608,6.913-52.56,12c-6.399,1.28-12.8,2.56-19.2,3.84
	c-20.727,6.273-43.583,8.891-64.32,15.12c-6.399,1.28-12.8,2.56-19.2,3.84c-11.279,2.72-22.562,5.44-33.84,8.16
	c-4.56,0.88-9.12,1.76-13.68,2.64c-7.255,2.481-16.724,5.044-24.72,5.76c-1.84-3.52-3.68-7.04-5.52-10.56
	c-3.701-7.097-6.712-14.224-9.84-21.84c-1.588-3.867-3.906-8.135-4.08-13.2c-26.637,13.999-53.283,28.001-79.92,42
	c1.254,12.197,14.138,29.405,19.92,38.64c16.817,26.861,35.305,52.313,52.08,78.96c48.845,77.59,98.617,153.903,137.28,242.16
	c9.947,22.707,18.672,45.966,28.08,70.08c4.792,12.284,11.234,29.085,12.24,43.92c0.771,2.443,5.116,4.67,9.36,5.76
	c6.568,1.687,15.035-1.082,21.84,0.24c48.292-9.331,83.939-27.372,115.92-52.32c7.715-6.019,14.045-13.839,21.6-19.92
	c8.047-6.477,15.382-14.966,21.84-23.04c5.772-7.217,12.33-13.996,17.76-21.6c15.106-21.157,28.12-43.995,38.4-70.08
	c5.085-12.903,8.538-26.925,11.76-41.52C623.208,529.433,569.399,477.945,494.864,481.211z M470.88,355.68c0.16,0,0.32,0,0.48,0
	c-11.039,39.996-22.081,80.004-33.12,120c-2.294,0.608-25.477,0.824-27.12,0.24c-14.879,1.28-29.762,2.561-44.64,3.84
	C401.276,438.404,436.083,397.036,470.88,355.68z M258,466.56c-11.119-20.718-22.241-41.442-33.36-62.16
	c55.354-12.479,110.726-24.961,166.08-37.44c0.57,0.214-6.683,8.524-7.92,10.08c-9.599,11.199-19.201,22.401-28.8,33.6
	c-25.598,29.677-52.643,60.803-78.24,90.48C269.84,489.601,263.919,478.079,258,466.56z M373.92,749.28
	c-1.04-0.08-2.08-0.16-3.12-0.24c-0.074-7.409-2.139-14.23-3.84-20.4c-3.671-13.314-7.359-25.951-11.28-38.4
	c-11.868-37.677-26.136-73.081-41.28-107.76c-6.399-13.999-12.801-28.001-19.2-42c9.477-0.38,22.13-2.004,30.48-4.56
	c4.4-0.56,8.801-1.12,13.2-1.68c9.759-1.84,19.521-3.68,29.28-5.52c18.101-4.104,39.027-2.29,55.44-2.88
	c0.08,0.08,0.16,0.16,0.24,0.24c-5.839,21.438-11.681,42.882-17.52,64.32c-8.729,29.304-14.016,59.136-21.6,89.52
	C379.764,699.775,373.465,725.583,373.92,749.28z M563.76,625.44c-2.214,9.917-4.419,19.542-7.92,28.32
	c-22.807,57.178-68.006,107.14-125.52,129.6c-9.224,3.603-19.124,3.794-30,6.48c2.8-10.479,5.601-20.961,8.4-31.44
	c6.563-21.887,12.755-43.375,19.44-64.56c17.384-55.086,34.85-109.432,54.24-162.96c1.84-0.24,3.68-0.48,5.52-0.72
	C541.499,529.937,576.78,567.126,563.76,625.44z"/>
</svg>
